<svg width="121" height="48" viewBox="0 0 121 48" fill="none" xmlns="http://www.w3.org/2000/svg">
<mask id="path-1-outside-1" maskUnits="userSpaceOnUse" x="-0.896219" y="-1.08335" width="91.7689" height="49.4197" fill="black">
<rect fill="white" x="-0.896219" y="-1.08335" width="91.7689" height="49.4197"/>
<path d="M8.38563 32.4322L13.742 32.5108L13.8897 31.2768L10.278 30.8935L10.2618 23.4912L13.3311 23.4845C17.1506 22.5433 21.1186 20.7593 21.1098 16.7271C21.1021 13.1764 18.2394 11.3171 14.5685 11.3853L8.24962 11.4893L4.03672 11.4083L3.8889 12.6122L6.44746 12.9978L6.48657 30.9018L3.92972 31.2985L4.08287 32.5319L8.38563 32.4322ZM10.2388 12.9594L12.7059 12.7735C15.5043 12.7674 17.0126 14.4793 17.0184 17.1273C17.0246 19.9859 15.1027 21.7955 12.6052 21.801L10.2581 21.8061L10.2388 12.9594Z"/>
<path d="M26.3366 32.8368C30.9387 32.0143 34.0027 29.6003 33.9924 24.9062C33.9832 20.6935 31.1781 17.6604 27.2362 17.669C22.6643 18.5216 19.5701 20.8754 19.5805 25.6297C19.5896 29.8123 22.3947 32.8454 26.3366 32.8368ZM27.1756 31.21C24.8887 31.215 23.2278 28.5406 23.2194 24.689C23.2121 21.3489 24.321 19.3003 26.3672 19.2958C28.624 19.2909 30.2842 21.6945 30.2933 25.8471C30.3005 29.157 29.1916 31.2056 27.1756 31.21Z"/>
<path d="M42.0143 32.8025C44.1493 32.1359 45.7423 31.3199 47.1543 30.2637L46.5497 29.0012C45.6183 29.6351 44.446 30.2094 43.3025 30.2119C40.4439 30.2181 38.6934 27.8147 38.6866 24.6853C38.6795 21.4656 40.1193 19.3862 41.8947 19.3823C42.5868 19.3808 42.9481 19.5003 43.3701 19.8003L44.038 22.5371L46.8064 22.5311L46.7989 19.1308C45.8342 18.2904 44.0574 17.6323 42.4024 17.6359C38.4929 18.6675 35.0073 20.9621 35.0175 25.6261C35.0275 30.1698 37.952 32.8114 42.0143 32.8025Z"/>
<path d="M51.2576 32.2708L54.3571 32.3543L54.5049 31.1202L53.0599 30.8225L53.0462 24.5636L53.4395 25.5257L58.7504 32.3447L60.6158 32.2504L63.2639 32.3348L63.4418 31.1007L62.1472 30.8026L56.5364 24.4357L55.753 23.9559L61.2199 19.5507L62.9044 19.2461L62.7211 18.0128L60.2539 18.1085L57.4853 18.0242L57.488 19.258L58.6923 19.5562L53.8568 23.7193L53.0451 24.0822L53.0162 10.8423L51.3013 10.9664L47.4216 11.8776L47.5747 13.111L49.5606 13.0465L49.5994 30.8301L47.6442 31.1352L47.7973 32.3686L51.2576 32.2708Z"/>
<path d="M74.9623 28.909C73.9706 29.513 72.4975 30.1481 71.2036 30.151C68.3149 30.1573 66.6553 28.0244 66.4976 24.7449L75.4948 24.7252L75.4916 23.2809C75.4847 20.1214 74.0047 17.5669 69.9424 17.5758C65.1906 18.7296 62.9396 21.4126 62.9486 25.5049C62.9586 30.0787 66.2142 32.7497 70.0658 32.7413C72.2009 32.1047 74.0346 31.2882 75.5367 30.1415L74.9623 28.909ZM69.4045 19.262C71.4506 19.2575 71.8753 20.8213 71.8803 23.1082L66.5248 23.3907C66.6995 20.7424 67.7796 19.2656 69.4045 19.262Z"/>
<path d="M86.2406 30.6898L87.0013 29.4999C85.9193 30.0439 84.2235 30.4983 83.5013 30.4999C82.6889 30.5017 81.7245 29.5562 81.722 28.4128L81.7034 19.9272L86.0064 19.9178L86.0032 18.4434L81.6701 18.4529L81.6608 14.2101L80.6077 14.2124L78.3253 16.2936L78.3297 18.2796L76.5242 18.2836L75.4134 19.4294L75.4145 19.941L78.243 19.9348L78.2614 28.3602C78.2678 31.279 79.7153 32.7202 82.5438 32.714L84.5013 32.4999L86.2406 30.6898Z"/>
</mask>
<path d="M8.38563 32.4322L13.742 32.5108L13.8897 31.2768L10.278 30.8935L10.2618 23.4912L13.3311 23.4845C17.1506 22.5433 21.1186 20.7593 21.1098 16.7271C21.1021 13.1764 18.2394 11.3171 14.5685 11.3853L8.24962 11.4893L4.03672 11.4083L3.8889 12.6122L6.44746 12.9978L6.48657 30.9018L3.92972 31.2985L4.08287 32.5319L8.38563 32.4322ZM10.2388 12.9594L12.7059 12.7735C15.5043 12.7674 17.0126 14.4793 17.0184 17.1273C17.0246 19.9859 15.1027 21.7955 12.6052 21.801L10.2581 21.8061L10.2388 12.9594Z" fill="#2B595F"/>
<path d="M26.3366 32.8368C30.9387 32.0143 34.0027 29.6003 33.9924 24.9062C33.9832 20.6935 31.1781 17.6604 27.2362 17.669C22.6643 18.5216 19.5701 20.8754 19.5805 25.6297C19.5896 29.8123 22.3947 32.8454 26.3366 32.8368ZM27.1756 31.21C24.8887 31.215 23.2278 28.5406 23.2194 24.689C23.2121 21.3489 24.321 19.3003 26.3672 19.2958C28.624 19.2909 30.2842 21.6945 30.2933 25.8471C30.3005 29.157 29.1916 31.2056 27.1756 31.21Z" fill="#2B595F"/>
<path d="M42.0143 32.8025C44.1493 32.1359 45.7423 31.3199 47.1543 30.2637L46.5497 29.0012C45.6183 29.6351 44.446 30.2094 43.3025 30.2119C40.4439 30.2181 38.6934 27.8147 38.6866 24.6853C38.6795 21.4656 40.1193 19.3862 41.8947 19.3823C42.5868 19.3808 42.9481 19.5003 43.3701 19.8003L44.038 22.5371L46.8064 22.5311L46.7989 19.1308C45.8342 18.2904 44.0574 17.6323 42.4024 17.6359C38.4929 18.6675 35.0073 20.9621 35.0175 25.6261C35.0275 30.1698 37.952 32.8114 42.0143 32.8025Z" fill="#2B595F"/>
<path d="M51.2576 32.2708L54.3571 32.3543L54.5049 31.1202L53.0599 30.8225L53.0462 24.5636L53.4395 25.5257L58.7504 32.3447L60.6158 32.2504L63.2639 32.3348L63.4418 31.1007L62.1472 30.8026L56.5364 24.4357L55.753 23.9559L61.2199 19.5507L62.9044 19.2461L62.7211 18.0128L60.2539 18.1085L57.4853 18.0242L57.488 19.258L58.6923 19.5562L53.8568 23.7193L53.0451 24.0822L53.0162 10.8423L51.3013 10.9664L47.4216 11.8776L47.5747 13.111L49.5606 13.0465L49.5994 30.8301L47.6442 31.1352L47.7973 32.3686L51.2576 32.2708Z" fill="#2B595F"/>
<path d="M74.9623 28.909C73.9706 29.513 72.4975 30.1481 71.2036 30.151C68.3149 30.1573 66.6553 28.0244 66.4976 24.7449L75.4948 24.7252L75.4916 23.2809C75.4847 20.1214 74.0047 17.5669 69.9424 17.5758C65.1906 18.7296 62.9396 21.4126 62.9486 25.5049C62.9586 30.0787 66.2142 32.7497 70.0658 32.7413C72.2009 32.1047 74.0346 31.2882 75.5367 30.1415L74.9623 28.909ZM69.4045 19.262C71.4506 19.2575 71.8753 20.8213 71.8803 23.1082L66.5248 23.3907C66.6995 20.7424 67.7796 19.2656 69.4045 19.262Z" fill="#2B595F"/>
<path d="M86.2406 30.6898L87.0013 29.4999C85.9193 30.0439 84.2235 30.4983 83.5013 30.4999C82.6889 30.5017 81.7245 29.5562 81.722 28.4128L81.7034 19.9272L86.0064 19.9178L86.0032 18.4434L81.6701 18.4529L81.6608 14.2101L80.6077 14.2124L78.3253 16.2936L78.3297 18.2796L76.5242 18.2836L75.4134 19.4294L75.4145 19.941L78.243 19.9348L78.2614 28.3602C78.2678 31.279 79.7153 32.7202 82.5438 32.714L84.5013 32.4999L86.2406 30.6898Z" fill="#2B595F"/>
<path d="M8.38563 32.4322L13.742 32.5108L13.8897 31.2768L10.278 30.8935L10.2618 23.4912L13.3311 23.4845C17.1506 22.5433 21.1186 20.7593 21.1098 16.7271C21.1021 13.1764 18.2394 11.3171 14.5685 11.3853L8.24962 11.4893L4.03672 11.4083L3.8889 12.6122L6.44746 12.9978L6.48657 30.9018L3.92972 31.2985L4.08287 32.5319L8.38563 32.4322ZM10.2388 12.9594L12.7059 12.7735C15.5043 12.7674 17.0126 14.4793 17.0184 17.1273C17.0246 19.9859 15.1027 21.7955 12.6052 21.801L10.2581 21.8061L10.2388 12.9594Z" stroke="#2B595F" stroke-width="0.2" mask="url(#path-1-outside-1)"/>
<path d="M26.3366 32.8368C30.9387 32.0143 34.0027 29.6003 33.9924 24.9062C33.9832 20.6935 31.1781 17.6604 27.2362 17.669C22.6643 18.5216 19.5701 20.8754 19.5805 25.6297C19.5896 29.8123 22.3947 32.8454 26.3366 32.8368ZM27.1756 31.21C24.8887 31.215 23.2278 28.5406 23.2194 24.689C23.2121 21.3489 24.321 19.3003 26.3672 19.2958C28.624 19.2909 30.2842 21.6945 30.2933 25.8471C30.3005 29.157 29.1916 31.2056 27.1756 31.21Z" stroke="#2B595F" stroke-width="0.2" mask="url(#path-1-outside-1)"/>
<path d="M42.0143 32.8025C44.1493 32.1359 45.7423 31.3199 47.1543 30.2637L46.5497 29.0012C45.6183 29.6351 44.446 30.2094 43.3025 30.2119C40.4439 30.2181 38.6934 27.8147 38.6866 24.6853C38.6795 21.4656 40.1193 19.3862 41.8947 19.3823C42.5868 19.3808 42.9481 19.5003 43.3701 19.8003L44.038 22.5371L46.8064 22.5311L46.7989 19.1308C45.8342 18.2904 44.0574 17.6323 42.4024 17.6359C38.4929 18.6675 35.0073 20.9621 35.0175 25.6261C35.0275 30.1698 37.952 32.8114 42.0143 32.8025Z" stroke="#2B595F" stroke-width="0.2" mask="url(#path-1-outside-1)"/>
<path d="M51.2576 32.2708L54.3571 32.3543L54.5049 31.1202L53.0599 30.8225L53.0462 24.5636L53.4395 25.5257L58.7504 32.3447L60.6158 32.2504L63.2639 32.3348L63.4418 31.1007L62.1472 30.8026L56.5364 24.4357L55.753 23.9559L61.2199 19.5507L62.9044 19.2461L62.7211 18.0128L60.2539 18.1085L57.4853 18.0242L57.488 19.258L58.6923 19.5562L53.8568 23.7193L53.0451 24.0822L53.0162 10.8423L51.3013 10.9664L47.4216 11.8776L47.5747 13.111L49.5606 13.0465L49.5994 30.8301L47.6442 31.1352L47.7973 32.3686L51.2576 32.2708Z" stroke="#2B595F" stroke-width="0.2" mask="url(#path-1-outside-1)"/>
<path d="M74.9623 28.909C73.9706 29.513 72.4975 30.1481 71.2036 30.151C68.3149 30.1573 66.6553 28.0244 66.4976 24.7449L75.4948 24.7252L75.4916 23.2809C75.4847 20.1214 74.0047 17.5669 69.9424 17.5758C65.1906 18.7296 62.9396 21.4126 62.9486 25.5049C62.9586 30.0787 66.2142 32.7497 70.0658 32.7413C72.2009 32.1047 74.0346 31.2882 75.5367 30.1415L74.9623 28.909ZM69.4045 19.262C71.4506 19.2575 71.8753 20.8213 71.8803 23.1082L66.5248 23.3907C66.6995 20.7424 67.7796 19.2656 69.4045 19.262Z" stroke="#2B595F" stroke-width="0.2" mask="url(#path-1-outside-1)"/>
<path d="M86.2406 30.6898L87.0013 29.4999C85.9193 30.0439 84.2235 30.4983 83.5013 30.4999C82.6889 30.5017 81.7245 29.5562 81.722 28.4128L81.7034 19.9272L86.0064 19.9178L86.0032 18.4434L81.6701 18.4529L81.6608 14.2101L80.6077 14.2124L78.3253 16.2936L78.3297 18.2796L76.5242 18.2836L75.4134 19.4294L75.4145 19.941L78.243 19.9348L78.2614 28.3602C78.2678 31.279 79.7153 32.7202 82.5438 32.714L84.5013 32.4999L86.2406 30.6898Z" stroke="#2B595F" stroke-width="0.2" mask="url(#path-1-outside-1)"/>
<mask id="path-2-outside-2" maskUnits="userSpaceOnUse" x="79.8138" y="18.4126" width="41" height="24" fill="black">
<rect fill="white" x="79.8138" y="18.4126" width="41" height="24"/>
<path d="M102.296 21.105C102.35 21.584 102.161 22.3937 101.728 23.5341C101.584 23.9099 101.118 25.0699 100.33 27.0139C100.042 27.7008 99.8184 28.2322 99.6609 28.608C99.5166 28.9709 99.3 29.5087 99.0113 30.2216C98.7358 30.9214 98.5127 31.4851 98.3422 31.9128C98.1848 32.3405 97.9815 32.8848 97.7322 33.5457C97.4962 34.2066 97.3061 34.7508 97.1619 35.1785C97.0309 35.619 96.8803 36.1179 96.71 36.675C96.5397 37.2322 96.4154 37.7051 96.3371 38.0937C96.2588 38.4824 96.1871 38.871 96.122 39.2596C96.0701 39.6611 96.051 39.9978 96.0648 40.2697C96.0919 40.5545 96.1452 40.794 96.2248 40.988C96.4501 41.4278 97.4401 41.1595 98.2838 40.7822C98.4947 40.7041 98.2844 40.988 98.2838 41.2556C98.3236 41.3461 98.3238 41.4368 98.2844 41.5275C98.2582 41.6182 98.199 41.6831 98.1067 41.7221C96.8281 42.2946 95.9898 42.141 95.592 41.2613C95.4727 41.0026 95.406 40.6661 95.3919 40.2517C95.3777 39.8374 95.4228 39.3453 95.5271 38.7753C95.6314 38.2053 95.7423 37.6483 95.8599 37.1042C95.9906 36.56 96.1936 35.8927 96.469 35.1023C96.7443 34.3118 96.9803 33.6315 97.177 33.0613C97.3736 32.5041 97.6491 31.7783 98.0034 30.8841C98.3576 29.9769 98.6332 29.2836 98.8301 28.804C99.0269 28.3116 99.3091 27.6311 99.6766 26.7628C100.477 24.7669 100.936 23.607 101.054 23.2831C101.448 22.2592 101.631 21.5596 101.604 21.1842C101.604 21.1583 101.617 21.1388 101.643 21.1258C101.551 21.126 101.393 21.1976 101.169 21.3405C100.365 21.8861 99.2461 23.0409 97.8117 24.805C97.5881 25.0904 97.3184 25.4665 97.0028 25.9333C96.5818 26.5299 96.2202 27.068 95.9178 27.5478C95.852 27.6515 95.6613 27.9433 95.3457 28.423C95.0301 28.9028 94.7934 29.2724 94.6357 29.5317C94.5962 29.5836 94.537 29.6679 94.4581 29.7846C93.9058 30.6274 93.4916 31.2563 93.2154 31.6713C92.9392 32.0992 92.5973 32.5855 92.1894 33.1303C91.7948 33.6879 91.479 34.0706 91.2419 34.2783C91.0181 34.4859 90.8467 34.564 90.7279 34.5124C90.3184 34.332 91.0396 32.291 92.8914 28.3895C93.9553 26.1729 94.4334 24.6051 94.3258 23.6859C94.2855 23.3882 94.1664 23.2395 93.9685 23.24C93.6387 23.2536 93.1445 23.5266 92.4859 24.0589C91.1951 25.1106 89.5895 26.9916 87.6691 29.702C85.7619 32.3995 83.6979 35.8418 81.4773 40.0291C81.3853 40.2235 81.2337 40.2756 81.0224 40.1854C80.9299 40.1468 80.8704 40.0822 80.8438 39.9916C80.804 39.901 80.8038 39.8104 80.8432 39.7197C81.1585 39.0974 81.5657 38.2743 82.0649 37.2503C83.0632 35.2152 83.8644 33.5754 84.4686 32.331C85.0728 31.0996 85.8674 29.434 86.8524 27.3341C87.8505 25.2213 88.5922 23.5428 89.0777 22.2987C89.5631 21.0546 89.7791 20.2837 89.7257 19.9859C89.6991 19.8824 89.7121 19.7917 89.7647 19.7139C89.8173 19.6361 89.8898 19.5907 89.9821 19.5775C90.0876 19.5514 90.18 19.5641 90.2593 19.6158C90.3386 19.6674 90.3915 19.745 90.4181 19.8485C90.5783 20.6769 89.0298 24.4807 85.7725 31.2599C88.2184 27.5125 90.3041 24.9312 92.0295 23.5161C92.8066 22.9058 93.4393 22.5872 93.9274 22.5602C94.5739 22.52 94.9375 22.8689 95.0183 23.6068C95.1394 24.6424 94.6418 26.3333 93.5254 28.6795C93.0132 29.7553 92.5338 30.7469 92.0872 31.6543C91.6538 32.5617 91.3648 33.1579 91.2203 33.4431C91.089 33.7283 91.0233 33.8773 91.0234 33.8903C91.0366 33.8902 91.1746 33.6763 91.4376 33.2484C91.7005 32.8335 92.0884 32.2111 92.6012 31.3813C93.1271 30.5514 93.6071 29.8058 94.041 29.1445C94.212 28.8722 94.4618 28.4832 94.7906 27.9775C95.1193 27.4718 95.2968 27.1995 95.3231 27.1606C95.7703 26.4863 96.1319 25.9481 96.4081 25.5461C96.7764 25.0144 97.0592 24.6253 97.2566 24.3789C98.7304 22.5629 99.9021 21.3626 100.772 20.778C101.127 20.5313 101.424 20.4141 101.662 20.4265C102.044 20.4387 102.256 20.6648 102.296 21.105Z"/>
<path d="M119.262 29.0516C119.368 29.0514 119.454 29.0836 119.52 29.1482C119.586 29.2128 119.626 29.2904 119.639 29.381C119.639 29.4846 119.607 29.5753 119.541 29.6531C119.475 29.718 119.389 29.7506 119.284 29.7508C118.386 29.7786 117.225 29.8264 115.8 29.8942L115.682 30.2052C115.17 31.3976 114.559 32.5449 113.849 33.6471C113.139 34.7622 112.291 35.8259 111.303 36.838C110.329 37.863 109.275 38.7523 108.142 39.5058C107.023 40.2592 105.764 40.8575 104.366 41.3008C102.968 41.757 101.524 41.9867 100.033 41.9899C98.5948 41.993 97.3012 41.7821 96.1523 41.3572C95.0034 40.9324 94.1313 40.358 93.5359 39.6342C92.9008 38.8716 92.6549 38.0434 92.798 37.1496C92.9674 36.2039 93.5526 35.3092 94.5536 34.4654C95.5809 33.6215 96.9713 32.861 98.7247 32.1839L106.139 19.6983C106.191 19.6075 106.264 19.5556 106.356 19.5424C106.449 19.5163 106.541 19.5291 106.633 19.5807C106.713 19.6193 106.766 19.684 106.792 19.7746C106.819 19.8651 106.806 19.9558 106.753 20.0466L101.981 28.1175C103.363 26.3535 104.897 24.7316 106.582 23.2518C109.822 20.4479 112.405 19.1798 114.332 19.4476C115.164 19.5624 115.811 19.9495 116.275 20.6089C116.751 21.2682 117.03 22.1287 117.112 23.1904C117.261 24.9511 116.916 26.9524 116.076 29.1944C117.105 29.1404 118.167 29.0928 119.262 29.0516ZM100.032 41.3101C101.219 41.3075 102.38 41.1561 103.514 40.8559C104.648 40.5556 105.696 40.1325 106.658 39.5866C107.62 39.0537 108.529 38.4302 109.385 37.7161C110.241 37.0021 111.018 36.217 111.716 35.3609C112.413 34.5048 113.038 33.6229 113.59 32.7153C114.142 31.8207 114.622 30.9003 115.029 29.9541C108.551 30.3953 103.42 31.2739 99.6361 32.5899C99.4388 32.9011 99.1495 33.3484 98.7682 33.9319C98.3868 34.5284 98.1502 34.9044 98.0582 35.06C97.0851 36.5901 96.2764 37.8414 95.632 38.8139C95.5795 38.9047 95.507 38.9566 95.4147 38.9698C95.3224 38.9959 95.23 38.9896 95.1375 38.9509C95.0583 38.8993 95.0053 38.8282 94.9787 38.7376C94.9521 38.647 94.9651 38.5564 95.0177 38.4656L98.1529 33.1563C96.8742 33.7029 95.8331 34.3137 95.0298 34.9888C94.1341 35.7159 93.6278 36.4745 93.5108 37.2646C93.3936 37.9511 93.5863 38.5982 94.0891 39.2057C94.6183 39.839 95.4111 40.3488 96.4676 40.735C97.5109 41.1213 98.6988 41.3129 100.032 41.3101ZM115.324 29.2543C116.19 26.9993 116.555 24.9979 116.419 23.2501C116.365 22.6675 116.252 22.1563 116.079 21.7164C115.907 21.2765 115.662 20.9209 115.344 20.6497C115.04 20.3784 114.671 20.2109 114.235 20.1471C112.519 19.9047 110.127 21.1141 107.058 23.7752C105.702 24.9564 104.491 26.1827 103.425 27.454C102.359 28.7123 101.306 30.113 100.267 31.6562C104.144 30.4436 109.163 29.643 115.324 29.2543Z"/>
</mask>
<path d="M102.296 21.105C102.35 21.584 102.161 22.3937 101.728 23.5341C101.584 23.9099 101.118 25.0699 100.33 27.0139C100.042 27.7008 99.8184 28.2322 99.6609 28.608C99.5166 28.9709 99.3 29.5087 99.0113 30.2216C98.7358 30.9214 98.5127 31.4851 98.3422 31.9128C98.1848 32.3405 97.9815 32.8848 97.7322 33.5457C97.4962 34.2066 97.3061 34.7508 97.1619 35.1785C97.0309 35.619 96.8803 36.1179 96.71 36.675C96.5397 37.2322 96.4154 37.7051 96.3371 38.0937C96.2588 38.4824 96.1871 38.871 96.122 39.2596C96.0701 39.6611 96.051 39.9978 96.0648 40.2697C96.0919 40.5545 96.1452 40.794 96.2248 40.988C96.4501 41.4278 97.4401 41.1595 98.2838 40.7822C98.4947 40.7041 98.2844 40.988 98.2838 41.2556C98.3236 41.3461 98.3238 41.4368 98.2844 41.5275C98.2582 41.6182 98.199 41.6831 98.1067 41.7221C96.8281 42.2946 95.9898 42.141 95.592 41.2613C95.4727 41.0026 95.406 40.6661 95.3919 40.2517C95.3777 39.8374 95.4228 39.3453 95.5271 38.7753C95.6314 38.2053 95.7423 37.6483 95.8599 37.1042C95.9906 36.56 96.1936 35.8927 96.469 35.1023C96.7443 34.3118 96.9803 33.6315 97.177 33.0613C97.3736 32.5041 97.6491 31.7783 98.0034 30.8841C98.3576 29.9769 98.6332 29.2836 98.8301 28.804C99.0269 28.3116 99.3091 27.6311 99.6766 26.7628C100.477 24.7669 100.936 23.607 101.054 23.2831C101.448 22.2592 101.631 21.5596 101.604 21.1842C101.604 21.1583 101.617 21.1388 101.643 21.1258C101.551 21.126 101.393 21.1976 101.169 21.3405C100.365 21.8861 99.2461 23.0409 97.8117 24.805C97.5881 25.0904 97.3184 25.4665 97.0028 25.9333C96.5818 26.5299 96.2202 27.068 95.9178 27.5478C95.852 27.6515 95.6613 27.9433 95.3457 28.423C95.0301 28.9028 94.7934 29.2724 94.6357 29.5317C94.5962 29.5836 94.537 29.6679 94.4581 29.7846C93.9058 30.6274 93.4916 31.2563 93.2154 31.6713C92.9392 32.0992 92.5973 32.5855 92.1894 33.1303C91.7948 33.6879 91.479 34.0706 91.2419 34.2783C91.0181 34.4859 90.8467 34.564 90.7279 34.5124C90.3184 34.332 91.0396 32.291 92.8914 28.3895C93.9553 26.1729 94.4334 24.6051 94.3258 23.6859C94.2855 23.3882 94.1664 23.2395 93.9685 23.24C93.6387 23.2536 93.1445 23.5266 92.4859 24.0589C91.1951 25.1106 89.5895 26.9916 87.6691 29.702C85.7619 32.3995 83.6979 35.8418 81.4773 40.0291C81.3853 40.2235 81.2337 40.2756 81.0224 40.1854C80.9299 40.1468 80.8704 40.0822 80.8438 39.9916C80.804 39.901 80.8038 39.8104 80.8432 39.7197C81.1585 39.0974 81.5657 38.2743 82.0649 37.2503C83.0632 35.2152 83.8644 33.5754 84.4686 32.331C85.0728 31.0996 85.8674 29.434 86.8524 27.3341C87.8505 25.2213 88.5922 23.5428 89.0777 22.2987C89.5631 21.0546 89.7791 20.2837 89.7257 19.9859C89.6991 19.8824 89.7121 19.7917 89.7647 19.7139C89.8173 19.6361 89.8898 19.5907 89.9821 19.5775C90.0876 19.5514 90.18 19.5641 90.2593 19.6158C90.3386 19.6674 90.3915 19.745 90.4181 19.8485C90.5783 20.6769 89.0298 24.4807 85.7725 31.2599C88.2184 27.5125 90.3041 24.9312 92.0295 23.5161C92.8066 22.9058 93.4393 22.5872 93.9274 22.5602C94.5739 22.52 94.9375 22.8689 95.0183 23.6068C95.1394 24.6424 94.6418 26.3333 93.5254 28.6795C93.0132 29.7553 92.5338 30.7469 92.0872 31.6543C91.6538 32.5617 91.3648 33.1579 91.2203 33.4431C91.089 33.7283 91.0233 33.8773 91.0234 33.8903C91.0366 33.8902 91.1746 33.6763 91.4376 33.2484C91.7005 32.8335 92.0884 32.2111 92.6012 31.3813C93.1271 30.5514 93.6071 29.8058 94.041 29.1445C94.212 28.8722 94.4618 28.4832 94.7906 27.9775C95.1193 27.4718 95.2968 27.1995 95.3231 27.1606C95.7703 26.4863 96.1319 25.9481 96.4081 25.5461C96.7764 25.0144 97.0592 24.6253 97.2566 24.3789C98.7304 22.5629 99.9021 21.3626 100.772 20.778C101.127 20.5313 101.424 20.4141 101.662 20.4265C102.044 20.4387 102.256 20.6648 102.296 21.105Z" fill="#C1C1C1"/>
<path d="M119.262 29.0516C119.368 29.0514 119.454 29.0836 119.52 29.1482C119.586 29.2128 119.626 29.2904 119.639 29.381C119.639 29.4846 119.607 29.5753 119.541 29.6531C119.475 29.718 119.389 29.7506 119.284 29.7508C118.386 29.7786 117.225 29.8264 115.8 29.8942L115.682 30.2052C115.17 31.3976 114.559 32.5449 113.849 33.6471C113.139 34.7622 112.291 35.8259 111.303 36.838C110.329 37.863 109.275 38.7523 108.142 39.5058C107.023 40.2592 105.764 40.8575 104.366 41.3008C102.968 41.757 101.524 41.9867 100.033 41.9899C98.5948 41.993 97.3012 41.7821 96.1523 41.3572C95.0034 40.9324 94.1313 40.358 93.5359 39.6342C92.9008 38.8716 92.6549 38.0434 92.798 37.1496C92.9674 36.2039 93.5526 35.3092 94.5536 34.4654C95.5809 33.6215 96.9713 32.861 98.7247 32.1839L106.139 19.6983C106.191 19.6075 106.264 19.5556 106.356 19.5424C106.449 19.5163 106.541 19.5291 106.633 19.5807C106.713 19.6193 106.766 19.684 106.792 19.7746C106.819 19.8651 106.806 19.9558 106.753 20.0466L101.981 28.1175C103.363 26.3535 104.897 24.7316 106.582 23.2518C109.822 20.4479 112.405 19.1798 114.332 19.4476C115.164 19.5624 115.811 19.9495 116.275 20.6089C116.751 21.2682 117.03 22.1287 117.112 23.1904C117.261 24.9511 116.916 26.9524 116.076 29.1944C117.105 29.1404 118.167 29.0928 119.262 29.0516ZM100.032 41.3101C101.219 41.3075 102.38 41.1561 103.514 40.8559C104.648 40.5556 105.696 40.1325 106.658 39.5866C107.62 39.0537 108.529 38.4302 109.385 37.7161C110.241 37.0021 111.018 36.217 111.716 35.3609C112.413 34.5048 113.038 33.6229 113.59 32.7153C114.142 31.8207 114.622 30.9003 115.029 29.9541C108.551 30.3953 103.42 31.2739 99.6361 32.5899C99.4388 32.9011 99.1495 33.3484 98.7682 33.9319C98.3868 34.5284 98.1502 34.9044 98.0582 35.06C97.0851 36.5901 96.2764 37.8414 95.632 38.8139C95.5795 38.9047 95.507 38.9566 95.4147 38.9698C95.3224 38.9959 95.23 38.9896 95.1375 38.9509C95.0583 38.8993 95.0053 38.8282 94.9787 38.7376C94.9521 38.647 94.9651 38.5564 95.0177 38.4656L98.1529 33.1563C96.8742 33.7029 95.8331 34.3137 95.0298 34.9888C94.1341 35.7159 93.6278 36.4745 93.5108 37.2646C93.3936 37.9511 93.5863 38.5982 94.0891 39.2057C94.6183 39.839 95.4111 40.3488 96.4676 40.735C97.5109 41.1213 98.6988 41.3129 100.032 41.3101ZM115.324 29.2543C116.19 26.9993 116.555 24.9979 116.419 23.2501C116.365 22.6675 116.252 22.1563 116.079 21.7164C115.907 21.2765 115.662 20.9209 115.344 20.6497C115.04 20.3784 114.671 20.2109 114.235 20.1471C112.519 19.9047 110.127 21.1141 107.058 23.7752C105.702 24.9564 104.491 26.1827 103.425 27.454C102.359 28.7123 101.306 30.113 100.267 31.6562C104.144 30.4436 109.163 29.643 115.324 29.2543Z" fill="#C1C1C1"/>
<path d="M102.296 21.105C102.35 21.584 102.161 22.3937 101.728 23.5341C101.584 23.9099 101.118 25.0699 100.33 27.0139C100.042 27.7008 99.8184 28.2322 99.6609 28.608C99.5166 28.9709 99.3 29.5087 99.0113 30.2216C98.7358 30.9214 98.5127 31.4851 98.3422 31.9128C98.1848 32.3405 97.9815 32.8848 97.7322 33.5457C97.4962 34.2066 97.3061 34.7508 97.1619 35.1785C97.0309 35.619 96.8803 36.1179 96.71 36.675C96.5397 37.2322 96.4154 37.7051 96.3371 38.0937C96.2588 38.4824 96.1871 38.871 96.122 39.2596C96.0701 39.6611 96.051 39.9978 96.0648 40.2697C96.0919 40.5545 96.1452 40.794 96.2248 40.988C96.4501 41.4278 97.4401 41.1595 98.2838 40.7822C98.4947 40.7041 98.2844 40.988 98.2838 41.2556C98.3236 41.3461 98.3238 41.4368 98.2844 41.5275C98.2582 41.6182 98.199 41.6831 98.1067 41.7221C96.8281 42.2946 95.9898 42.141 95.592 41.2613C95.4727 41.0026 95.406 40.6661 95.3919 40.2517C95.3777 39.8374 95.4228 39.3453 95.5271 38.7753C95.6314 38.2053 95.7423 37.6483 95.8599 37.1042C95.9906 36.56 96.1936 35.8927 96.469 35.1023C96.7443 34.3118 96.9803 33.6315 97.177 33.0613C97.3736 32.5041 97.6491 31.7783 98.0034 30.8841C98.3576 29.9769 98.6332 29.2836 98.8301 28.804C99.0269 28.3116 99.3091 27.6311 99.6766 26.7628C100.477 24.7669 100.936 23.607 101.054 23.2831C101.448 22.2592 101.631 21.5596 101.604 21.1842C101.604 21.1583 101.617 21.1388 101.643 21.1258C101.551 21.126 101.393 21.1976 101.169 21.3405C100.365 21.8861 99.2461 23.0409 97.8117 24.805C97.5881 25.0904 97.3184 25.4665 97.0028 25.9333C96.5818 26.5299 96.2202 27.068 95.9178 27.5478C95.852 27.6515 95.6613 27.9433 95.3457 28.423C95.0301 28.9028 94.7934 29.2724 94.6357 29.5317C94.5962 29.5836 94.537 29.6679 94.4581 29.7846C93.9058 30.6274 93.4916 31.2563 93.2154 31.6713C92.9392 32.0992 92.5973 32.5855 92.1894 33.1303C91.7948 33.6879 91.479 34.0706 91.2419 34.2783C91.0181 34.4859 90.8467 34.564 90.7279 34.5124C90.3184 34.332 91.0396 32.291 92.8914 28.3895C93.9553 26.1729 94.4334 24.6051 94.3258 23.6859C94.2855 23.3882 94.1664 23.2395 93.9685 23.24C93.6387 23.2536 93.1445 23.5266 92.4859 24.0589C91.1951 25.1106 89.5895 26.9916 87.6691 29.702C85.7619 32.3995 83.6979 35.8418 81.4773 40.0291C81.3853 40.2235 81.2337 40.2756 81.0224 40.1854C80.9299 40.1468 80.8704 40.0822 80.8438 39.9916C80.804 39.901 80.8038 39.8104 80.8432 39.7197C81.1585 39.0974 81.5657 38.2743 82.0649 37.2503C83.0632 35.2152 83.8644 33.5754 84.4686 32.331C85.0728 31.0996 85.8674 29.434 86.8524 27.3341C87.8505 25.2213 88.5922 23.5428 89.0777 22.2987C89.5631 21.0546 89.7791 20.2837 89.7257 19.9859C89.6991 19.8824 89.7121 19.7917 89.7647 19.7139C89.8173 19.6361 89.8898 19.5907 89.9821 19.5775C90.0876 19.5514 90.18 19.5641 90.2593 19.6158C90.3386 19.6674 90.3915 19.745 90.4181 19.8485C90.5783 20.6769 89.0298 24.4807 85.7725 31.2599C88.2184 27.5125 90.3041 24.9312 92.0295 23.5161C92.8066 22.9058 93.4393 22.5872 93.9274 22.5602C94.5739 22.52 94.9375 22.8689 95.0183 23.6068C95.1394 24.6424 94.6418 26.3333 93.5254 28.6795C93.0132 29.7553 92.5338 30.7469 92.0872 31.6543C91.6538 32.5617 91.3648 33.1579 91.2203 33.4431C91.089 33.7283 91.0233 33.8773 91.0234 33.8903C91.0366 33.8902 91.1746 33.6763 91.4376 33.2484C91.7005 32.8335 92.0884 32.2111 92.6012 31.3813C93.1271 30.5514 93.6071 29.8058 94.041 29.1445C94.212 28.8722 94.4618 28.4832 94.7906 27.9775C95.1193 27.4718 95.2968 27.1995 95.3231 27.1606C95.7703 26.4863 96.1319 25.9481 96.4081 25.5461C96.7764 25.0144 97.0592 24.6253 97.2566 24.3789C98.7304 22.5629 99.9021 21.3626 100.772 20.778C101.127 20.5313 101.424 20.4141 101.662 20.4265C102.044 20.4387 102.256 20.6648 102.296 21.105Z" stroke="#C1C1C1" stroke-width="0.4" mask="url(#path-2-outside-2)"/>
<path d="M119.262 29.0516C119.368 29.0514 119.454 29.0836 119.52 29.1482C119.586 29.2128 119.626 29.2904 119.639 29.381C119.639 29.4846 119.607 29.5753 119.541 29.6531C119.475 29.718 119.389 29.7506 119.284 29.7508C118.386 29.7786 117.225 29.8264 115.8 29.8942L115.682 30.2052C115.17 31.3976 114.559 32.5449 113.849 33.6471C113.139 34.7622 112.291 35.8259 111.303 36.838C110.329 37.863 109.275 38.7523 108.142 39.5058C107.023 40.2592 105.764 40.8575 104.366 41.3008C102.968 41.757 101.524 41.9867 100.033 41.9899C98.5948 41.993 97.3012 41.7821 96.1523 41.3572C95.0034 40.9324 94.1313 40.358 93.5359 39.6342C92.9008 38.8716 92.6549 38.0434 92.798 37.1496C92.9674 36.2039 93.5526 35.3092 94.5536 34.4654C95.5809 33.6215 96.9713 32.861 98.7247 32.1839L106.139 19.6983C106.191 19.6075 106.264 19.5556 106.356 19.5424C106.449 19.5163 106.541 19.5291 106.633 19.5807C106.713 19.6193 106.766 19.684 106.792 19.7746C106.819 19.8651 106.806 19.9558 106.753 20.0466L101.981 28.1175C103.363 26.3535 104.897 24.7316 106.582 23.2518C109.822 20.4479 112.405 19.1798 114.332 19.4476C115.164 19.5624 115.811 19.9495 116.275 20.6089C116.751 21.2682 117.03 22.1287 117.112 23.1904C117.261 24.9511 116.916 26.9524 116.076 29.1944C117.105 29.1404 118.167 29.0928 119.262 29.0516ZM100.032 41.3101C101.219 41.3075 102.38 41.1561 103.514 40.8559C104.648 40.5556 105.696 40.1325 106.658 39.5866C107.62 39.0537 108.529 38.4302 109.385 37.7161C110.241 37.0021 111.018 36.217 111.716 35.3609C112.413 34.5048 113.038 33.6229 113.59 32.7153C114.142 31.8207 114.622 30.9003 115.029 29.9541C108.551 30.3953 103.42 31.2739 99.6361 32.5899C99.4388 32.9011 99.1495 33.3484 98.7682 33.9319C98.3868 34.5284 98.1502 34.9044 98.0582 35.06C97.0851 36.5901 96.2764 37.8414 95.632 38.8139C95.5795 38.9047 95.507 38.9566 95.4147 38.9698C95.3224 38.9959 95.23 38.9896 95.1375 38.9509C95.0583 38.8993 95.0053 38.8282 94.9787 38.7376C94.9521 38.647 94.9651 38.5564 95.0177 38.4656L98.1529 33.1563C96.8742 33.7029 95.8331 34.3137 95.0298 34.9888C94.1341 35.7159 93.6278 36.4745 93.5108 37.2646C93.3936 37.9511 93.5863 38.5982 94.0891 39.2057C94.6183 39.839 95.4111 40.3488 96.4676 40.735C97.5109 41.1213 98.6988 41.3129 100.032 41.3101ZM115.324 29.2543C116.19 26.9993 116.555 24.9979 116.419 23.2501C116.365 22.6675 116.252 22.1563 116.079 21.7164C115.907 21.2765 115.662 20.9209 115.344 20.6497C115.04 20.3784 114.671 20.2109 114.235 20.1471C112.519 19.9047 110.127 21.1141 107.058 23.7752C105.702 24.9564 104.491 26.1827 103.425 27.454C102.359 28.7123 101.306 30.113 100.267 31.6562C104.144 30.4436 109.163 29.643 115.324 29.2543Z" stroke="#C1C1C1" stroke-width="0.4" mask="url(#path-2-outside-2)"/>
</svg>
